<?xml version="1.0" encoding="us-ascii" standalone="no"?><svg xmlns="http://www.w3.org/2000/svg" xmlns:xlink="http://www.w3.org/1999/xlink" contentStyleType="text/css" height="948px" preserveAspectRatio="none" style="width:1578px;height:948px;background:#FFFFFF;" version="1.1" viewBox="0 0 1578 948" width="1578px" zoomAndPan="magnify"><defs/><g><text fill="#000000" font-family="sans-serif" font-size="14" font-weight="bold" lengthAdjust="spacing" textLength="336" x="614" y="24.5332">RAG Learning Assistant - Architecture Overview</text><!--cluster Documents--><g id="cluster_Documents"><rect fill="#E8F4FD" height="218" rx="2.5" ry="2.5" style="stroke:#181818;stroke-width:1.0;" width="331.5" x="507" y="45.6094"/><a href="diagrams/ingestion-retrieval-library.svg" target="_top" title="diagrams/ingestion-retrieval-library.svg" xlink:actuate="onRequest" xlink:href="diagrams/ingestion-retrieval-library.svg" xlink:show="new" xlink:title="diagrams/ingestion-retrieval-library.svg" xlink:type="simple"><text fill="#0000FF" font-family="sans-serif" font-size="14" font-weight="bold" lengthAdjust="spacing" text-decoration="underline" textLength="154" x="595.75" y="62.1426">Document processing</text></a></g><!--cluster Generation--><g id="cluster_Generation"><rect fill="#FFF4D9" height="218" rx="2.5" ry="2.5" style="stroke:#181818;stroke-width:1.0;" width="438" x="664" y="303.6094"/><a href="diagrams/generation-summaries.svg" target="_top" title="diagrams/generation-summaries.svg" xlink:actuate="onRequest" xlink:href="diagrams/generation-summaries.svg" xlink:show="new" xlink:title="diagrams/generation-summaries.svg" xlink:type="simple"><text fill="#0000FF" font-family="sans-serif" font-size="14" font-weight="bold" lengthAdjust="spacing" text-decoration="underline" textLength="152" x="807" y="320.1426">Grounded generation</text></a></g><!--cluster Material--><g id="cluster_Material"><rect fill="#F3E8FF" height="218" rx="2.5" ry="2.5" style="stroke:#181818;stroke-width:1.0;" width="204" x="892" y="562.6094"/><a href="diagrams/question-banks-packages.svg" target="_top" title="diagrams/question-banks-packages.svg" xlink:actuate="onRequest" xlink:href="diagrams/question-banks-packages.svg" xlink:show="new" xlink:title="diagrams/question-banks-packages.svg" xlink:type="simple"><text fill="#0000FF" font-family="sans-serif" font-size="14" font-weight="bold" lengthAdjust="spacing" text-decoration="underline" textLength="122" x="933" y="579.1426">Learning material</text></a></g><!--cluster Study--><g id="cluster_Study"><rect fill="#FFE8E8" height="218" rx="2.5" ry="2.5" style="stroke:#181818;stroke-width:1.0;" width="430" x="1142" y="436.6094"/><a href="diagrams/study-progress.svg" target="_top" title="diagrams/study-progress.svg" xlink:actuate="onRequest" xlink:href="diagrams/study-progress.svg" xlink:show="new" xlink:title="diagrams/study-progress.svg" xlink:type="simple"><text fill="#0000FF" font-family="sans-serif" font-size="14" font-weight="bold" lengthAdjust="spacing" text-decoration="underline" textLength="106" x="1304" y="453.1426">Study workflow</text></a></g><!--cluster Interfaces--><g id="cluster_Interfaces"><rect fill="#EFFFF4" height="301" rx="2.5" ry="2.5" style="stroke:#181818;stroke-width:1.0;" width="218" x="129.5" y="341.6094"/><a href="diagrams/evaluation-interfaces.svg" target="_top" title="diagrams/evaluation-interfaces.svg" xlink:actuate="onRequest" xlink:href="diagrams/evaluation-interfaces.svg" xlink:show="new" xlink:title="diagrams/evaluation-interfaces.svg" xlink:type="simple"><text fill="#0000FF" font-family="sans-serif" font-size="14" font-weight="bold" lengthAdjust="spacing" text-decoration="underline" textLength="153" x="162" y="358.1426">Quality and interfaces</text></a></g><!--entity ingestion--><g id="elem_ingestion"><rect fill="#F1F1F1" height="47.6094" rx="2.5" ry="2.5" style="stroke:#181818;stroke-width:0.5;" width="97" x="531" y="89.6094"/><rect fill="#F1F1F1" height="10" style="stroke:#181818;stroke-width:0.5;" width="15" x="608" y="94.6094"/><rect fill="#F1F1F1" height="2" style="stroke:#181818;stroke-width:0.5;" width="4" x="606" y="96.6094"/><rect fill="#F1F1F1" height="2" style="stroke:#181818;stroke-width:0.5;" width="4" x="606" y="100.6094"/><text fill="#000000" font-family="sans-serif" font-size="14" lengthAdjust="spacing" textLength="57" x="546" y="124.1426">ingestion</text></g><!--entity chunking--><g id="elem_chunking"><rect fill="#F1F1F1" height="47.6094" rx="2.5" ry="2.5" style="stroke:#181818;stroke-width:0.5;" width="97" x="531" y="172.6094"/><rect fill="#F1F1F1" height="10" style="stroke:#181818;stroke-width:0.5;" width="15" x="608" y="177.6094"/><rect fill="#F1F1F1" height="2" style="stroke:#181818;stroke-width:0.5;" width="4" x="606" y="179.6094"/><rect fill="#F1F1F1" height="2" style="stroke:#181818;stroke-width:0.5;" width="4" x="606" y="183.6094"/><text fill="#000000" font-family="sans-serif" font-size="14" lengthAdjust="spacing" textLength="57" x="546" y="207.1426">chunking</text></g><!--entity retrieval--><g id="elem_retrieval"><rect fill="#F1F1F1" height="47.6094" rx="2.5" ry="2.5" style="stroke:#181818;stroke-width:0.5;" width="91" x="723.5" y="172.6094"/><rect fill="#F1F1F1" height="10" style="stroke:#181818;stroke-width:0.5;" width="15" x="794.5" y="177.6094"/><rect fill="#F1F1F1" height="2" style="stroke:#181818;stroke-width:0.5;" width="4" x="792.5" y="179.6094"/><rect fill="#F1F1F1" height="2" style="stroke:#181818;stroke-width:0.5;" width="4" x="792.5" y="183.6094"/><text fill="#000000" font-family="sans-serif" font-size="14" lengthAdjust="spacing" textLength="51" x="738.5" y="207.1426">retrieval</text></g><!--entity library--><g id="elem_library"><rect fill="#F1F1F1" height="47.6094" rx="2.5" ry="2.5" style="stroke:#181818;stroke-width:0.5;" width="79" x="729.5" y="89.6094"/><rect fill="#F1F1F1" height="10" style="stroke:#181818;stroke-width:0.5;" width="15" x="788.5" y="94.6094"/><rect fill="#F1F1F1" height="2" style="stroke:#181818;stroke-width:0.5;" width="4" x="786.5" y="96.6094"/><rect fill="#F1F1F1" height="2" style="stroke:#181818;stroke-width:0.5;" width="4" x="786.5" y="100.6094"/><text fill="#000000" font-family="sans-serif" font-size="14" lengthAdjust="spacing" textLength="39" x="744.5" y="124.1426">library</text></g><!--entity question answering--><g id="elem_question answering"><rect fill="#F1F1F1" height="47.6094" rx="2.5" ry="2.5" style="stroke:#181818;stroke-width:0.5;" width="162" x="688" y="430.6094"/><rect fill="#F1F1F1" height="10" style="stroke:#181818;stroke-width:0.5;" width="15" x="830" y="435.6094"/><rect fill="#F1F1F1" height="2" style="stroke:#181818;stroke-width:0.5;" width="4" x="828" y="437.6094"/><rect fill="#F1F1F1" height="2" style="stroke:#181818;stroke-width:0.5;" width="4" x="828" y="441.6094"/><text fill="#000000" font-family="sans-serif" font-size="14" lengthAdjust="spacing" textLength="122" x="703" y="465.1426">question answering</text></g><!--entity summarization--><g id="elem_summarization"><rect fill="#F1F1F1" height="47.6094" rx="2.5" ry="2.5" style="stroke:#181818;stroke-width:0.5;" width="130" x="704" y="347.6094"/><rect fill="#F1F1F1" height="10" style="stroke:#181818;stroke-width:0.5;" width="15" x="814" y="352.6094"/><rect fill="#F1F1F1" height="2" style="stroke:#181818;stroke-width:0.5;" width="4" x="812" y="354.6094"/><rect fill="#F1F1F1" height="2" style="stroke:#181818;stroke-width:0.5;" width="4" x="812" y="358.6094"/><text fill="#000000" font-family="sans-serif" font-size="14" lengthAdjust="spacing" textLength="90" x="719" y="382.1426">summarization</text></g><!--entity generation adapters--><g id="elem_generation adapters"><rect fill="#F1F1F1" height="47.6094" rx="2.5" ry="2.5" style="stroke:#181818;stroke-width:0.5;" width="168" x="910" y="419.6094"/><rect fill="#F1F1F1" height="10" style="stroke:#181818;stroke-width:0.5;" width="15" x="1058" y="424.6094"/><rect fill="#F1F1F1" height="2" style="stroke:#181818;stroke-width:0.5;" width="4" x="1056" y="426.6094"/><rect fill="#F1F1F1" height="2" style="stroke:#181818;stroke-width:0.5;" width="4" x="1056" y="430.6094"/><text fill="#000000" font-family="sans-serif" font-size="14" lengthAdjust="spacing" textLength="128" x="925" y="454.1426">generation adapters</text></g><!--entity question banks--><g id="elem_question banks"><rect fill="#F1F1F1" height="47.6094" rx="2.5" ry="2.5" style="stroke:#181818;stroke-width:0.5;" width="136" x="926" y="606.6094"/><rect fill="#F1F1F1" height="10" style="stroke:#181818;stroke-width:0.5;" width="15" x="1042" y="611.6094"/><rect fill="#F1F1F1" height="2" style="stroke:#181818;stroke-width:0.5;" width="4" x="1040" y="613.6094"/><rect fill="#F1F1F1" height="2" style="stroke:#181818;stroke-width:0.5;" width="4" x="1040" y="617.6094"/><text fill="#000000" font-family="sans-serif" font-size="14" lengthAdjust="spacing" textLength="96" x="941" y="641.1426">question banks</text></g><!--entity learning packages--><g id="elem_learning packages"><rect fill="#F1F1F1" height="47.6094" rx="2.5" ry="2.5" style="stroke:#181818;stroke-width:0.5;" width="156" x="916" y="689.6094"/><rect fill="#F1F1F1" height="10" style="stroke:#181818;stroke-width:0.5;" width="15" x="1052" y="694.6094"/><rect fill="#F1F1F1" height="2" style="stroke:#181818;stroke-width:0.5;" width="4" x="1050" y="696.6094"/><rect fill="#F1F1F1" height="2" style="stroke:#181818;stroke-width:0.5;" width="4" x="1050" y="700.6094"/><text fill="#000000" font-family="sans-serif" font-size="14" lengthAdjust="spacing" textLength="116" x="931" y="724.1426">learning packages</text></g><!--entity answer evaluation--><g id="elem_answer evaluation"><rect fill="#F1F1F1" height="47.6094" rx="2.5" ry="2.5" style="stroke:#181818;stroke-width:0.5;" width="154" x="1166" y="563.6094"/><rect fill="#F1F1F1" height="10" style="stroke:#181818;stroke-width:0.5;" width="15" x="1300" y="568.6094"/><rect fill="#F1F1F1" height="2" style="stroke:#181818;stroke-width:0.5;" width="4" x="1298" y="570.6094"/><rect fill="#F1F1F1" height="2" style="stroke:#181818;stroke-width:0.5;" width="4" x="1298" y="574.6094"/><text fill="#000000" font-family="sans-serif" font-size="14" lengthAdjust="spacing" textLength="114" x="1181" y="598.1426">answer evaluation</text></g><!--entity study sessions--><g id="elem_study sessions"><rect fill="#F1F1F1" height="47.6094" rx="2.5" ry="2.5" style="stroke:#181818;stroke-width:0.5;" width="133" x="1176.5" y="480.6094"/><rect fill="#F1F1F1" height="10" style="stroke:#181818;stroke-width:0.5;" width="15" x="1289.5" y="485.6094"/><rect fill="#F1F1F1" height="2" style="stroke:#181818;stroke-width:0.5;" width="4" x="1287.5" y="487.6094"/><rect fill="#F1F1F1" height="2" style="stroke:#181818;stroke-width:0.5;" width="4" x="1287.5" y="491.6094"/><text fill="#000000" font-family="sans-serif" font-size="14" lengthAdjust="spacing" textLength="93" x="1191.5" y="515.1426">study sessions</text></g><!--entity review and progress--><g id="elem_review and progress"><rect fill="#F1F1F1" height="47.6094" rx="2.5" ry="2.5" style="stroke:#181818;stroke-width:0.5;" width="168" x="1380" y="563.6094"/><rect fill="#F1F1F1" height="10" style="stroke:#181818;stroke-width:0.5;" width="15" x="1528" y="568.6094"/><rect fill="#F1F1F1" height="2" style="stroke:#181818;stroke-width:0.5;" width="4" x="1526" y="570.6094"/><rect fill="#F1F1F1" height="2" style="stroke:#181818;stroke-width:0.5;" width="4" x="1526" y="574.6094"/><text fill="#000000" font-family="sans-serif" font-size="14" lengthAdjust="spacing" textLength="128" x="1395" y="598.1426">review and progress</text></g><!--entity grounded evaluation--><g id="elem_grounded evaluation"><rect fill="#F1F1F1" height="47.6094" rx="2.5" ry="2.5" style="stroke:#181818;stroke-width:0.5;" width="170" x="153.5" y="468.6094"/><rect fill="#F1F1F1" height="10" style="stroke:#181818;stroke-width:0.5;" width="15" x="303.5" y="473.6094"/><rect fill="#F1F1F1" height="2" style="stroke:#181818;stroke-width:0.5;" width="4" x="301.5" y="475.6094"/><rect fill="#F1F1F1" height="2" style="stroke:#181818;stroke-width:0.5;" width="4" x="301.5" y="479.6094"/><text fill="#000000" font-family="sans-serif" font-size="14" lengthAdjust="spacing" textLength="130" x="168.5" y="503.1426">grounded evaluation</text></g><!--entity interfaces.cli--><g id="elem_interfaces.cli"><rect fill="#F1F1F1" height="47.6094" rx="2.5" ry="2.5" style="stroke:#181818;stroke-width:0.5;" width="119" x="179" y="551.6094"/><rect fill="#F1F1F1" height="10" style="stroke:#181818;stroke-width:0.5;" width="15" x="278" y="556.6094"/><rect fill="#F1F1F1" height="2" style="stroke:#181818;stroke-width:0.5;" width="4" x="276" y="558.6094"/><rect fill="#F1F1F1" height="2" style="stroke:#181818;stroke-width:0.5;" width="4" x="276" y="562.6094"/><text fill="#000000" font-family="sans-serif" font-size="14" lengthAdjust="spacing" textLength="79" x="194" y="586.1426">interfaces.cli</text></g><!--entity interfaces.web--><g id="elem_interfaces.web"><rect fill="#F1F1F1" height="47.6094" rx="2.5" ry="2.5" style="stroke:#181818;stroke-width:0.5;" width="131" x="173" y="385.6094"/><rect fill="#F1F1F1" height="10" style="stroke:#181818;stroke-width:0.5;" width="15" x="284" y="390.6094"/><rect fill="#F1F1F1" height="2" style="stroke:#181818;stroke-width:0.5;" width="4" x="282" y="392.6094"/><rect fill="#F1F1F1" height="2" style="stroke:#181818;stroke-width:0.5;" width="4" x="282" y="396.6094"/><text fill="#000000" font-family="sans-serif" font-size="14" lengthAdjust="spacing" textLength="91" x="188" y="420.1426">interfaces.web</text></g><g id="elem_GMN30"><path d="M6,274.1094 L6,316.8125 A0,0 0 0 0 6,316.8125 L235,316.8125 L239,385.4294 L243,316.8125 L471,316.8125 A0,0 0 0 0 471,316.8125 L471,284.1094 L461,274.1094 L6,274.1094 A0,0 0 0 0 6,274.1094 " fill="#FEFFDD" style="stroke:#181818;stroke-width:0.5;"/><path d="M461,274.1094 L461,284.1094 L471,284.1094 L461,274.1094 " fill="#FEFFDD" style="stroke:#181818;stroke-width:0.5;"/><text fill="#000000" font-family="sans-serif" font-size="13" lengthAdjust="spacing" textLength="444" x="12" y="292.6045">Select a colored area in rendered SVG output to open its detailed class view.</text><text fill="#000000" font-family="sans-serif" font-size="13" lengthAdjust="spacing" textLength="346" x="12" y="308.9561">Source links are also listed in docs/diagrams/README.md.</text></g><!--link Documents to Generation--><g id="link_Documents_Generation"><path d="M580,264.0775 C580,264.4647 580,264.8639 580,265.2751 C580,266.0975 580,266.9674 580,267.883 C580,275.2077 580,285.4545 580,297.6389 C580,322.0078 580,354.1275 580,386.1231 C580,450.1144 580,513.6094 580,513.6094 C580,513.6094 591.0856,513.6094 607.8873,513.6094 C616.2882,513.6094 626.1181,513.6094 636.7058,513.6094 C641.9997,513.6094 647.483,513.6094 653.0718,513.6094 C655.8663,513.6094 658.6871,513.6094 661.5238,513.6094 C662.233,513.6094 656.9432,513.6094 657.6542,513.6094 " fill="none" id="Documents-to-Generation" style="stroke:#181818;stroke-width:1.0;"/><polygon fill="#181818" points="663.6542,513.6094,654.6542,509.6094,658.6542,513.6094,654.6542,517.6094,663.6542,513.6094" style="stroke:#181818;stroke-width:1.0;"/><text fill="#000000" font-family="sans-serif" font-size="13" lengthAdjust="spacing" textLength="86" x="493" y="493.3545">trusted chunks</text></g><!--link Generation to Material--><g id="link_Generation_Material"><path d="M769,521.9246 C769,522.3033 769,522.6939 769,523.0961 C769,524.7049 769,526.4994 769,528.465 C769,536.3271 769,546.9255 769,559.3178 C769,584.1025 769,616.0631 769,647.6619 C769,710.8594 769,772.6094 769,772.6094 C769,772.6094 821.79,772.6094 876.2288,772.6094 C879.6312,772.6094 883.04,772.6094 886.4429,772.6094 C888.1443,772.6094 883.8442,772.6094 885.541,772.6094 " fill="none" id="Generation-to-Material" style="stroke:#181818;stroke-width:1.0;"/><polygon fill="#181818" points="891.541,772.6094,882.541,768.6094,886.541,772.6094,882.541,776.6094,891.541,772.6094" style="stroke:#181818;stroke-width:1.0;"/><text fill="#000000" font-family="sans-serif" font-size="13" lengthAdjust="spacing" textLength="149" x="619" y="769.9945">summaries and questions</text></g><!--link Material to Study--><g id="link_Material_Study"><path d="M1097.324,772.6094 C1098.2616,772.6094 1099.2008,772.6094 1100.1414,772.6094 C1107.6664,772.6094 1115.2828,772.6094 1122.8775,772.6094 C1183.635,772.6094 1243,772.6094 1243,772.6094 C1243,772.6094 1243,743.0469 1243,712.5606 C1243,697.3175 1243,681.8434 1243,669.7183 C1243,666.687 1243,663.865 1243,661.3083 C1243,660.0299 1243,658.8178 1243,657.6791 C1243,657.1097 1243,656.5586 1243,656.0268 C1243,655.7609 1243,655.4997 1243,655.2435 C1243,655.1154 1243,660.9885 1243,660.8629 " fill="none" id="Material-to-Study" style="stroke:#181818;stroke-width:1.0;"/><polygon fill="#181818" points="1243,654.8629,1239,663.8629,1243,659.8629,1247,663.8629,1243,654.8629" style="stroke:#181818;stroke-width:1.0;"/><text fill="#000000" font-family="sans-serif" font-size="13" lengthAdjust="spacing" textLength="92" x="1088.52" y="787.1045">ready packages</text></g><!--link Generation to Study--><g id="link_Generation_Study"><path d="M1067,521.9291 C1067,522.0633 1067,522.1989 1067,522.3359 C1067,523.4318 1067,524.6169 1067,525.8833 C1067,528.416 1067,531.2734 1067,534.3906 C1067,546.8594 1067,563.4844 1067,580.1094 C1067,613.3594 1067,646.6094 1067,646.6094 C1067,646.6094 1077.3231,646.6094 1092.9692,646.6094 C1100.7923,646.6094 1109.9461,646.6094 1119.8056,646.6094 C1124.7353,646.6094 1129.8415,646.6094 1135.046,646.6094 C1136.3471,646.6094 1137.6544,646.6094 1138.9666,646.6094 C1139.6227,646.6094 1140.28,646.6094 1140.9384,646.6094 C1141.2676,646.6094 1135.5971,646.6094 1135.9268,646.6094 " fill="none" id="Generation-to-Study" style="stroke:#181818;stroke-width:1.0;"/><polygon fill="#181818" points="1141.9268,646.6094,1132.9268,642.6094,1136.9268,646.6094,1132.9268,650.6094,1141.9268,646.6094" style="stroke:#181818;stroke-width:1.0;"/><text fill="#000000" font-family="sans-serif" font-size="13" lengthAdjust="spacing" textLength="114" x="952" y="533.5945">grounded evaluation</text></g><!--link Interfaces to Documents--><g id="link_Interfaces_Documents"><path d="M348.667,634.6094 C349.8235,634.6094 350.9836,634.6094 352.1473,634.6094 C354.4747,634.6094 356.8161,634.6094 359.1693,634.6094 C363.8756,634.6094 368.629,634.6094 373.4115,634.6094 C382.9764,634.6094 392.6577,634.6094 402.3113,634.6094 C479.54,634.6094 555,634.6094 555,634.6094 C555,634.6094 555,539.8594 555,445.1094 C555,397.7344 555,350.3594 555,314.8281 C555,297.0625 555,282.2578 555,271.8945 C555,269.3037 555,266.9905 555,264.978 C555,264.7264 555,270.4795 555,270.2374 " fill="none" id="Interfaces-to-Documents" style="stroke:#181818;stroke-width:1.0;stroke-dasharray:7.0,7.0;"/><polygon fill="#181818" points="555,264.2374,551,273.2374,555,269.2374,559,273.2374,555,264.2374" style="stroke:#181818;stroke-width:1.0;"/></g><!--link Interfaces to Generation--><g id="link_Interfaces_Generation"><path d="M347.6914,620.1094 C357.0078,620.1094 365.7031,620.1094 373.1563,620.1094 C388.0625,620.1094 398,620.1094 398,620.1094 C398,620.1094 398,496.6094 398,496.6094 C398,496.6094 490.75,496.6094 583.5,496.6094 C606.6875,496.6094 629.875,496.6094 651.6133,496.6094 C654.3306,496.6094 657.0252,496.6094 659.6944,496.6094 C661.029,496.6094 656.3572,496.6094 657.6787,496.6094 " fill="none" id="Interfaces-to-Generation" style="stroke:#181818;stroke-width:1.0;stroke-dasharray:7.0,7.0;"/><polygon fill="#181818" points="663.6787,496.6094,654.6787,492.6094,658.6787,496.6094,654.6787,500.6094,663.6787,496.6094" style="stroke:#181818;stroke-width:1.0;"/></g><!--link Interfaces to Material--><g id="link_Interfaces_Material"><path d="M239,642.6417 C239,642.7644 239,642.8883 239,643.0134 C239,643.2636 239,643.5187 239,643.7784 C239,644.8172 239,645.9312 239,647.1132 C239,649.4773 239,652.1138 239,654.9667 C239,666.3784 239,681.2538 239,696.0156 C239,725.5394 239,754.6094 239,754.6094 C239,754.6094 427.75,754.6094 616.5,754.6094 C710.875,754.6094 805.25,754.6094 876.0313,754.6094 C880.4551,754.6094 878.7867,754.6094 883.0205,754.6094 " fill="none" id="Interfaces-to-Material" style="stroke:#181818;stroke-width:1.0;stroke-dasharray:7.0,7.0;"/><polygon fill="#181818" points="889.0205,754.6094,880.0205,750.6094,884.0205,754.6094,880.0205,758.6094,889.0205,754.6094" style="stroke:#181818;stroke-width:1.0;"/></g><!--link Interfaces to Study--><g id="link_Interfaces_Study"><path d="M209,642.7463 C209,642.8079 209,642.8698 209,642.9318 C209,643.056 209,643.181 209,643.3069 C209,644.314 209,645.376 209,646.4746 C209,648.6719 209,651.0156 209,653.3594 C209,662.7344 209,672.1094 209,672.1094 C209,672.1094 1282,672.1094 1282,672.1094 C1282,672.1094 1282,665.7344 1282,659.3594 C1282,657.7656 1282,662.1719 1282,660.6777 " fill="none" id="Interfaces-to-Study" style="stroke:#181818;stroke-width:1.0;stroke-dasharray:7.0,7.0;"/><polygon fill="#181818" points="1282,654.6777,1278,663.6777,1282,659.6777,1286,663.6777,1282,654.6777" style="stroke:#181818;stroke-width:1.0;"/></g><rect fill="#DDDDDD" height="119.6563" id="_legend" rx="7.5" ry="7.5" style="stroke:#000000;stroke-width:1.0;" width="337" x="12" y="808.9609"/><text fill="#000000" font-family="sans-serif" font-size="14" font-weight="bold" lengthAdjust="spacing" textLength="59" x="21" y="830.4941">Notation</text><text fill="#000000" font-family="sans-serif" font-size="14" font-weight="bold" lengthAdjust="spacing" textLength="61" x="125" y="830.4941">Meaning</text><text fill="#000000" font-family="sans-serif" font-size="14" lengthAdjust="spacing" textLength="4" x="17" y="848.1035">&#160;</text><path d="M22,838.3464 L22,847.6797 L26.6667,843.013 L22,838.3464 " fill="#000000" style="stroke:;stroke-width:0.0;stroke-dasharray:;"/><text fill="#000000" font-family="sans-serif" font-size="14" lengthAdjust="spacing" textLength="29" x="36.3333" y="848.1035">solid</text><text fill="#000000" font-family="sans-serif" font-size="14" lengthAdjust="spacing" textLength="70" x="125" y="848.1035">Inheritance</text><text fill="#000000" font-family="sans-serif" font-size="14" lengthAdjust="spacing" textLength="4" x="17" y="865.7129">&#160;</text><path d="M22,855.9557 L22,865.2891 L26.6667,860.6224 L22,855.9557 " fill="#000000" style="stroke:;stroke-width:0.0;stroke-dasharray:;"/><text fill="#000000" font-family="sans-serif" font-size="14" lengthAdjust="spacing" textLength="47" x="36.3333" y="865.7129">dashed</text><text fill="#000000" font-family="sans-serif" font-size="14" lengthAdjust="spacing" textLength="215" x="125" y="865.7129">Structural protocol implementation</text><text fill="#000000" font-family="sans-serif" font-size="14" lengthAdjust="spacing" textLength="87" x="21" y="883.3223">filled diamond</text><text fill="#000000" font-family="sans-serif" font-size="14" lengthAdjust="spacing" textLength="160" x="125" y="883.3223">Composition / owned part</text><text fill="#000000" font-family="sans-serif" font-size="14" lengthAdjust="spacing" textLength="96" x="21" y="900.9316">empty diamond</text><text fill="#000000" font-family="sans-serif" font-size="14" lengthAdjust="spacing" textLength="194" x="125" y="900.9316">Aggregation / stored reference</text><text fill="#000000" font-family="sans-serif" font-size="14" lengthAdjust="spacing" textLength="35" x="21" y="918.541">arrow</text><text fill="#000000" font-family="sans-serif" font-size="14" lengthAdjust="spacing" textLength="134" x="125" y="918.541">Runtime dependency</text><line style="stroke:#000000;stroke-width:1.0;" x1="17" x2="344" y1="815.9609" y2="815.9609"/><line style="stroke:#000000;stroke-width:1.0;" x1="17" x2="344" y1="833.5703" y2="833.5703"/><line style="stroke:#000000;stroke-width:1.0;" x1="17" x2="344" y1="851.1797" y2="851.1797"/><line style="stroke:#000000;stroke-width:1.0;" x1="17" x2="344" y1="868.7891" y2="868.7891"/><line style="stroke:#000000;stroke-width:1.0;" x1="17" x2="344" y1="886.3984" y2="886.3984"/><line style="stroke:#000000;stroke-width:1.0;" x1="17" x2="344" y1="904.0078" y2="904.0078"/><line style="stroke:#000000;stroke-width:1.0;" x1="17" x2="344" y1="921.6172" y2="921.6172"/><line style="stroke:#000000;stroke-width:1.0;" x1="17" x2="17" y1="815.9609" y2="921.6172"/><line style="stroke:#000000;stroke-width:1.0;" x1="121" x2="121" y1="815.9609" y2="921.6172"/><line style="stroke:#000000;stroke-width:1.0;" x1="344" x2="344" y1="815.9609" y2="921.6172"/><!--SRC=[TPHDZnen38Rl-HNkxdbc3zq3vR0I4Wogr5NLHUfbXIepOuQ8J4Bp0Q9L_tkTp1SQBISKstdzvBKPBxqYU5kiuHkXrLBNi71EEe_QGmOBMnwafz87I_3zJFOiwI8-ILsgK15K4ckBZNlwvG_KK7uAZHAAzXwy0IlhW-SIozUbqKASi3nYJV3m_ZvSv8RaOZgpvAsaCwfCoPr5UytTkOQbAKD3p7AofYGcq_Ls-m3eXeo3nzMiU2wMy5S0l0-2stWg3q4Vuvru63gaKzTbA_vz25QJ9ek9p8McGRxf4j7Qcg0hgc2iw8ZMGm0UYw9uNdvfaNw7bWXGkmlP7gUJ_OC3xQW8ME79atNty7hDR8VwwBAkf2KS9jaWIqX-RyltsXsPxZDRLapeab9hJI_GozwZS3vKrun7KrkUJMg-YI6u67lSAtFfEhT1DcKrMytQjgqN4CSHHWUI8BWuQADTDxMuS-nT1NsZUpYZM2OrltMFPMV9Zu1A-cjI6LCTtTSXmAjKnCcrY7K_wGdaZNQfv3HqeLta4-D-PjdBxMxCmTlWFEkcxNJY9XTBXp7DOTYy1DvFoecX9DQtvix14l9lFxAfQb_rmQF4ZG5v_ZB-iwQ9KNAQwO6cyTHL26qymSvuRnfsQqEAFmc0K1fbBACWe_DO-0LC5WERdsimmPz2-f2O4scGR6H57gMAnYbq3k9Uv57F15iIACbcHYr0vGmVaySiMvdIFGrByhPQB5zNULFbWjj1HFiF]--></g></svg>